<svg id="Layer_1" data-name="Layer 1" xmlns="http://www.w3.org/2000/svg" viewBox="0 0 582.42 188.03"><defs><style>.cls-1{fill:#fdfaf8;}</style></defs><path class="cls-1" d="M54.59,165.18a39.11,39.11,0,0,1-16.76-3.29,31.12,31.12,0,0,1-11.37-8.79A36.88,36.88,0,0,1,20,140.91,44.91,44.91,0,0,1,18,127.55a42.14,42.14,0,0,1,2.16-13.11,38,38,0,0,1,6.63-12.19A33.68,33.68,0,0,1,38,93.3a34.68,34.68,0,0,1,15.78-3.39A36.65,36.65,0,0,1,70.11,93.3a33,33,0,0,1,11.36,9,39.69,39.69,0,0,1,6.69,12.19,40.89,40.89,0,0,1,2.21,13.06,41.81,41.81,0,0,1-2.16,13,38.81,38.81,0,0,1-6.63,12.24,33.43,33.43,0,0,1-11.16,9A34.6,34.6,0,0,1,54.59,165.18Zm.2-4.22a21.86,21.86,0,0,0,11.11-2.72,23.94,23.94,0,0,0,7.86-7.3,34.52,34.52,0,0,0,4.73-10.18,41.11,41.11,0,0,0,1.6-11.26,47.13,47.13,0,0,0-1.75-12.65,40.33,40.33,0,0,0-5.14-11.41,27.56,27.56,0,0,0-8.38-8.28A20.94,20.94,0,0,0,53.45,94,21.81,21.81,0,0,0,42.3,96.8a24.21,24.21,0,0,0-7.92,7.35,34.63,34.63,0,0,0-4.73,10.18,41.49,41.49,0,0,0-1.59,11.36,47.33,47.33,0,0,0,1.59,11.83A41.94,41.94,0,0,0,34.53,149a27.18,27.18,0,0,0,8.33,8.63A21.29,21.29,0,0,0,54.79,161Z"/><path class="cls-1" d="M92.94,163.53v-3.39a6.43,6.43,0,0,0,4.73-1.64,12.52,12.52,0,0,0,2.72-4.53q1.08-2.88,2.52-6.68L124.1,89.6h2.46l22.93,58.51q.82,2.16,1.85,5.55a15.8,15.8,0,0,1,.83,5.76l3.49-.2,3.5-.21v4.52H135.61v-3.39q3.91-.1,5.14-1.75a5.09,5.09,0,0,0,.93-3.9,18.4,18.4,0,0,0-1-4.12l-3.6-9.66-26.73.61-3.6,11q-.72,2.46-1.29,3.9c-.37,1-.8,2-1.28,3.19l4.06-.2,4-.21v4.52Zm18.92-26.63h23.75l-7.3-19.64c-.75-2.12-1.53-4.23-2.31-6.32s-1.56-4.2-2.32-6.32h-.2q-1,2.88-2.11,5.75c-.72,1.92-1.46,3.88-2.21,5.86Z"/><path class="cls-1" d="M163.58,163.53v-3.39c2.61-.14,4.39-.73,5.35-1.8a6.91,6.91,0,0,0,1.59-4.42c.1-1.88.16-4,.16-6.43V103.07c0-1.37,0-2.69.1-4s.14-2.41.2-3.44l-3.7.21-3.7.2V91.56h23.14V95q-3.81.1-5.3,1.75a6.94,6.94,0,0,0-1.64,4.42q-.17,2.77-.16,6.48v16.86h7.71l12.86-20.26c.89-1.37,2-2.88,3.29-4.52a24.55,24.55,0,0,1,4-4.11c-1,.07-2.08.1-3.14.1s-2.11,0-3.14.1V91.56h28.52L231.4,96c-2.88.21-13.53-.34-15.79.41a18,18,0,0,0-6.48,4,40.59,40.59,0,0,0-6.58,8.48l-10.08,16a17.5,17.5,0,0,1,4.84,4.06c1.23,1.55,2.47,3.11,3.7,4.68l11.52,15.32a67.32,67.32,0,0,0,6.42,7.56,12.19,12.19,0,0,0,4.53,3,13.74,13.74,0,0,0,4.16.62v3.39H215.1a4.79,4.79,0,0,1-2.73-1.44,31.38,31.38,0,0,1-3.65-3.75q-2-2.31-4-4.88L192.37,136.8q-2-2.56-3.91-4.88a16.31,16.31,0,0,0-3.8-3.45l-5,.1V151.3c0,1.85,0,3.44-.05,4.78a27.54,27.54,0,0,1-.26,3.34l3.7-.2,3.71-.21v4.52Z"/><path class="cls-1" d="M257.36,164.56,239,109.86l-2.77-8.59q-1-3.13-1.55-5.39c-1,.06-1.92.1-2.88.1s-2.07,0-3,0l.15-4.47h25V95q-6,.31-7.15,2.67c-.78,1.58-.63,4.42.47,8.54a117.5,117.5,0,0,0,3.8,12.23q2.06,5.46,4,11.73c1,3.08,1.94,5.93,2.93,8.53s2,5.52,3,8.74h.2l1.08-3.7c.38-1.3.77-2.57,1.18-3.81s.79-2.38,1.13-3.44.62-1.94.83-2.62q2.88-9.15,5.7-17.74t5-15.11q2.16-6.54,3-9.62h3.29q.93,3.39,2.68,8.64t3.7,11q1.95,5.76,3.65,10.9t2.72,8.23q1.44,4.62,3,9.15t2.93,9.35h.31c.61-2,1.28-4.11,2-6.37s1.46-4.56,2.21-6.89q2.67-7.61,4.37-12.75t2.78-8.53c.72-2.27,1.33-4.24,1.85-5.92s1-3.3,1.59-4.88c.41-1.17.88-2.42,1.39-3.75a25.58,25.58,0,0,1,1.8-3.76c-1.37.07-2.74.12-4.11.16s-2.75.08-4.12.15V91.56H332V95a14.82,14.82,0,0,0-5.5,1.54,9.53,9.53,0,0,0-3.55,4.22,79.91,79.91,0,0,0-3.7,9.46q-4.74,14-9.2,27.5t-9.31,26.89h-3.09L282,119.94c-.62-1.79-1.22-3.53-1.8-5.25s-1.19-3.42-1.8-5.14q-.82,2.58-1.7,5.14t-1.7,5.14l-14.7,44.73Z"/><path class="cls-1" d="M370.26,165.18a39.14,39.14,0,0,1-16.76-3.29,31.08,31.08,0,0,1-11.36-8.79,36.72,36.72,0,0,1-6.43-12.19,45.23,45.23,0,0,1-2.06-13.36,42.14,42.14,0,0,1,2.16-13.11,38,38,0,0,1,6.63-12.19,33.78,33.78,0,0,1,11.21-9,34.69,34.69,0,0,1,15.79-3.39,36.71,36.71,0,0,1,16.35,3.39,33,33,0,0,1,11.36,9,39.66,39.66,0,0,1,6.68,12.19A40.89,40.89,0,0,1,406,127.55a41.81,41.81,0,0,1-2.16,13,38.81,38.81,0,0,1-6.63,12.24,33.43,33.43,0,0,1-11.16,9A34.57,34.57,0,0,1,370.26,165.18Zm.2-4.22a21.83,21.83,0,0,0,11.11-2.72,24.07,24.07,0,0,0,7.87-7.3,34.77,34.77,0,0,0,4.73-10.18,41.1,41.1,0,0,0,1.59-11.26A46.74,46.74,0,0,0,394,116.85a40.06,40.06,0,0,0-5.14-11.41,27.56,27.56,0,0,0-8.38-8.28A20.91,20.91,0,0,0,369.13,94,21.85,21.85,0,0,0,358,96.8a24.21,24.21,0,0,0-7.92,7.35,34.89,34.89,0,0,0-4.73,10.18,41.49,41.49,0,0,0-1.59,11.36,47.33,47.33,0,0,0,1.59,11.83A42,42,0,0,0,350.21,149a27.07,27.07,0,0,0,8.33,8.63A21.25,21.25,0,0,0,370.46,161Z"/><path class="cls-1" d="M451.9,165.18a39.14,39.14,0,0,1-16.76-3.29,31.08,31.08,0,0,1-11.36-8.79,36.91,36.91,0,0,1-6.43-12.19,45.22,45.22,0,0,1-2.05-13.36,42.14,42.14,0,0,1,2.16-13.11,38,38,0,0,1,6.63-12.19,33.68,33.68,0,0,1,11.21-9,34.68,34.68,0,0,1,15.78-3.39,36.65,36.65,0,0,1,16.35,3.39,33,33,0,0,1,11.36,9,39.66,39.66,0,0,1,6.68,12.19,40.63,40.63,0,0,1,2.22,13.06,41.81,41.81,0,0,1-2.16,13,38.64,38.64,0,0,1-6.64,12.24,33.49,33.49,0,0,1-11.15,9A34.65,34.65,0,0,1,451.9,165.18Zm.21-4.22a21.8,21.8,0,0,0,11.1-2.72,23.88,23.88,0,0,0,7.87-7.3,34.52,34.52,0,0,0,4.73-10.18,41.1,41.1,0,0,0,1.59-11.26,47.12,47.12,0,0,0-1.74-12.65,40.08,40.08,0,0,0-5.15-11.41,27.44,27.44,0,0,0-8.38-8.28A20.88,20.88,0,0,0,450.77,94a21.85,21.85,0,0,0-11.16,2.78,24.28,24.28,0,0,0-7.91,7.35A34.38,34.38,0,0,0,427,114.33a41.12,41.12,0,0,0-1.6,11.36,46.9,46.9,0,0,0,1.6,11.83A41.94,41.94,0,0,0,431.85,149a27.07,27.07,0,0,0,8.33,8.63A21.26,21.26,0,0,0,452.11,161Z"/><path class="cls-1" d="M496.94,160.14c2.6-.14,4.39-.73,5.35-1.8a6.91,6.91,0,0,0,1.59-4.42c.1-1.88.15-4,.15-6.43V103.07c0-1.37,0-2.69.11-4s.13-2.41.2-3.44l-3.7.21-3.7.2V91.56l24.27-.11a62.72,62.72,0,0,1,17,2.16,37.05,37.05,0,0,1,13.32,6.64,29.66,29.66,0,0,1,8.64,11.31,39.45,39.45,0,0,1,3,16.09,37.69,37.69,0,0,1-2.47,13.57,32.65,32.65,0,0,1-7.4,11.47A35.54,35.54,0,0,1,541,160.6a45.6,45.6,0,0,1-17,2.93h-27Zm16-8.74c0,1.85,0,3.43-.05,4.73a27.3,27.3,0,0,1-.26,3.29c1.85.07,3.55.12,5.09.16s2.85,0,3.91,0h2a28.84,28.84,0,0,0,12.09-2.47,27.31,27.31,0,0,0,9.25-6.84A31.06,31.06,0,0,0,551,140a37.73,37.73,0,0,0,2.11-12.8,37.62,37.62,0,0,0-3.55-16.92,25.15,25.15,0,0,0-10.84-11.1q-7.31-4-18.61-4-3.81,0-5.3,1.54a6.57,6.57,0,0,0-1.65,4.32q-.15,2.77-.15,6.48Z"/><path class="cls-1" d="M213,31.2l-1.14.2c-1,.19-2,.39-3,.54-.75.12-.87.39-.55,1.1,1.07,2.32,2.06,4.68,3.09,7,.33.08.41.35.46.63l.74.84a1.13,1.13,0,0,1,.55.89,1.94,1.94,0,0,1,1.19,1.15c1.48.63,2.71,1.76,4.34,2.05.91.78,2.11.4,3.11.81a12.33,12.33,0,0,0,2.12-.33c.89-.3,2.15-.06,2.37-1.47a1.2,1.2,0,0,1-1.38,0l-.77-.27-.31-.09c.09-.27.23-.19.39-.07l.8.1,1-.1-1.7-1.51a5,5,0,0,0-1.74-1.72l-1-1.22-3.65-2.79c-.17-.09-.44-.15-.25-.43,0,0,.27.06.41.1a12.27,12.27,0,0,1,4.75,2.12l2.3,1.34c1,.73,1.86,1.63,3.17,1.73l-.23-.6-1.22-2.32-.55-1.38c-.46.07-.5-.27-.56-.58s-.27-.69-.4-1l-.22-.31c-.35-.37-.71-.73-1.07-1.09l-.95-.88L221,32.21l-1-.46-.76-.27A23.86,23.86,0,0,0,213,31.2Z"/><path class="cls-1" d="M237.81,71.24l4.9,2.46,1.32.38.13,0,.15,0a7,7,0,0,0,3.83.37c1.25.21,2.31-.6,3.52-.65-.87-1.19-2.44-.6-3.47-1.38l-.35.14a3.27,3.27,0,0,0,.11,1.43,3.27,3.27,0,0,1-.11-1.43l-2.41-1-.34.12-2.2-1a4.23,4.23,0,0,1,2.81,0l2.85.47a5.77,5.77,0,0,1,.72,0c.41.07.86.66,1.18-.14s-.11-1-.64-1.28L246.54,68l-3.83-1.09a10.57,10.57,0,0,1,5.52.26,10.75,10.75,0,0,1,3.64,1.1l1.57.5A6.81,6.81,0,0,0,256.3,70v-.1c-.92-.74-1.37-1.92-2.46-2.48a15,15,0,0,0-8.29-4.82,19,19,0,0,0-4.76.19L236,64.61l-.56.29-.76.35-.33.15-1.56,1c-.41.52,0,.73.35,1C234.68,68.65,236.24,70,237.81,71.24Z"/><path class="cls-1" d="M230.49,59.85a.89.89,0,0,0,.11-.38.89.89,0,0,1-.11.38c.95.41,1.91.06,2.87.06l1.8-.49,1.57-1a.66.66,0,0,1-.19-.18l-.7-.16c-1.11-.28-2.35-.23-3.2-1.2-.43.35-.71.17-.94-.25.33,0,.69-.12.93.24,1.15-.48,2.33.05,3.5-.1l.18.27.13-.08.15,0a.52.52,0,0,1-.11-.32l-.34.11c-.22-.58-.89-.65-1.24-1.09a1.81,1.81,0,0,1-1.16-.68l-.76-.16-1.11-.68-4.34-1.08a8.4,8.4,0,0,1,4.33-.24l2.21.31a8.4,8.4,0,0,1,3.86,1,3.06,3.06,0,0,0,.21-.29L236.59,52l-2.33-1.86-1.43-.74-1.07-.4-3.32-.53h-1.18l-1.51.18-3.57.94c-1.27.57-2.51,1.23-3.82,1.67s-.55.85-.18,1.35q.15,0,.15.15l.6.63a3.27,3.27,0,0,1,1.15,1.27,26.31,26.31,0,0,0,4.13,3.46L226,59l1.73.6,1.73.29Zm-.05-3.49-.33,0Z"/><path class="cls-1" d="M231.05,30.1c-.05.27-.11.55-.16.82a30,30,0,0,0,0,5.19l.1.35,1,2.43.14.34.94,1.22c.37,1.13,1.5,1.48,2.27,2.19l.52-.08.42.21a.37.37,0,0,1-.15-.27,1.11,1.11,0,0,1-.25,0c-.28-1.15-1.8-1.87-1.15-3.34l0,0L235,39l-.32.27c.27.38.41.89.94,1,.44.63,1.28.89,1.57,1.66.64-.49.31-1,.11-1.57l-.1-.39c-.07-.21-.15-.42-.23-.63a3.79,3.79,0,0,0-.35-2.7c0-.44-.43-.87.1-1.5.55,1.12,1.05,2.16,1.56,3.19l2.05-1.52.07-.83-.08-.36c-.86-4.93-5.2-6.81-8.45-9.83A13.92,13.92,0,0,1,231.05,30.1Zm4.81,8a7.72,7.72,0,0,1-.53.61A7.72,7.72,0,0,0,235.86,38.08Z"/><path class="cls-1" d="M262.62,50.43,263,50l0-.11.12,0a4.78,4.78,0,0,0-.38-2.58c-1-.39-1.38-2.19-2.95-1.3a.38.38,0,0,1-.54-.08,6.43,6.43,0,0,0-3.62,2.57c-.22.49-.44,1-.65,1.48l-.21.82c0,.31-.11.62-.17.93.1,1.14.19,2.27.29,3.41.07.23.15.47.23.71l.87,2,.15.33,1.43,2.31.48.54.91,1.05a6,6,0,0,1,1.85,1.79l0,0,0,0c-1,.53-1.55-.34-2.28-.66l-2.88-1.25-6.62-3.87c-4-2.94-7.42-6.53-11-9.92L236.66,47l-2.4-1.82-.79-.59-.58-.4-1.51-.76-.74.29L235,47.63c.32,0,.47.25.59.51l.62.54a5.56,5.56,0,0,1,1.84,1.77,38.46,38.46,0,0,1,4.65,4.9l.6.63a.3.3,0,0,1,.2.27l.8.77A5,5,0,0,1,246,58.48l.48.26.49.3h.3l-.18.26.16.29.82.11a64.45,64.45,0,0,0,12.83,7.58A26.1,26.1,0,0,0,275.07,70a2.25,2.25,0,0,0,.08-.24c-1.82-.43-3.21-1.77-5-2.36l-.65-.5-.86-.46a.23.23,0,0,1-.26-.17L268,66l-1-.56a1.8,1.8,0,0,1-1.11-.68,9.07,9.07,0,0,1-2.77-2l-.48-.37-.74-.69a2.19,2.19,0,0,1-1.06-1,6.48,6.48,0,0,1-1.92-2.39c-.36-.08-.4-.38-.45-.67l-.28-.7-.14-.33-.67-1.74-.13-.34-.13-.35a2.63,2.63,0,0,1-.1-2.06.3.3,0,0,1,0-.29l.11-.53a2.22,2.22,0,0,1,.55-1.37.44.44,0,0,1,.37-.45l.6-.3c0-.65.6-.58,1-.75,1-.08,1.95,0,2.14,1.33C261.81,50.24,262,50.64,262.62,50.43ZM261.5,64.38c.27-.14.43.11.62.24-.27.07-.52.13-.68-.18-.39,0-.75,0-.57-.57h0C261.23,63.88,261.5,64,261.5,64.38Z"/><path class="cls-1" d="M247.52,50.76c-.17-.61-.34-1.19-.5-1.78l-.16,0-.13.07a4.18,4.18,0,0,1-1.45-1.23,4.18,4.18,0,0,0,1.45,1.23c-.36-1.17-1.31-2.13-1.18-3.51l1.07,1.15,1.27,1.85,1,1.09c-.23-1.19.1-2.47-.61-3.58a4.56,4.56,0,0,0-.12-2.43c-.24-.52,0-.77.43-1l.12.07.06-.12.69,2.17c-.16,1.33.5,2.46.93,3.64-.25.21,0,.25.15.34l-.11-.34.9-.7.87-1.47c.06-.32.12-.64.19-1-.09-.67.35-1.33,0-2l.18-.49a.8.8,0,0,1,0-.83c-.08-.35-.16-.71-.25-1.06-.3-.82-.61-1.63-.91-2.44l-.65-1.34-2.21-2.73-1.84-1.63-.32-.24c-.44-.18-.81-.81-1.27.12-2.14,4.37-3.49,8.81-1.81,13.68C244.2,49.09,245.69,50.7,247.52,50.76Zm-2.42-3.13c-.11-.14-.24-.28-.36-.41C244.86,47.35,245,47.49,245.1,47.63Z"/><path class="cls-1" d="M239.48,40.92c.36-1.35,1.41-2.55.88-4.1l-2.05,1.52A4.71,4.71,0,0,0,239.48,40.92Z"/><path class="cls-1" d="M347.71,31.2l1.13.2c1,.19,2,.39,3.05.54.75.12.87.39.55,1.1-1.07,2.32-2.06,4.68-3.08,7-.34.08-.41.35-.47.63l-.73.84a1.14,1.14,0,0,0-.56.89,2,2,0,0,0-1.19,1.15c-1.47.63-2.71,1.76-4.34,2.05-.9.78-2.11.4-3.11.81a12.33,12.33,0,0,1-2.12-.33c-.88-.3-2.15-.06-2.37-1.47a1.2,1.2,0,0,0,1.38,0l.77-.27.31-.09c-.09-.27-.23-.19-.38-.07l-.81.1-1-.1,1.71-1.51a4.91,4.91,0,0,1,1.73-1.72l1-1.22,3.65-2.79c.18-.09.44-.15.25-.43,0,0-.26.06-.4.1a12.25,12.25,0,0,0-4.76,2.12l-2.29,1.34c-1,.73-1.86,1.63-3.18,1.73l.24-.6c.4-.78.81-1.55,1.21-2.32l.56-1.38c.45.07.49-.27.56-.58s.26-.69.4-1l.21-.31,1.07-1.09,1-.88,2.11-1.38,1-.46.76-.27A23.82,23.82,0,0,1,347.71,31.2Z"/><path class="cls-1" d="M322.92,71.24,318,73.7l-1.32.38-.13,0-.14,0a7,7,0,0,1-3.84.37c-1.25.21-2.31-.6-3.51-.65.86-1.19,2.43-.6,3.46-1.38l.35.14a3.12,3.12,0,0,1-.11,1.43,3.12,3.12,0,0,0,.11-1.43l2.41-1,.34.12,2.21-1a4.26,4.26,0,0,0-2.82,0l-2.85.47a5.77,5.77,0,0,0-.72,0c-.41.07-.86.66-1.18-.14s.11-1,.64-1.28L314.2,68,318,66.89a10.58,10.58,0,0,0-5.52.26,10.81,10.81,0,0,0-3.64,1.1l-1.56.5A6.92,6.92,0,0,1,304.44,70v-.1c.91-.74,1.36-1.92,2.45-2.48a15.08,15.08,0,0,1,8.29-4.82,19,19,0,0,1,4.76.19l4.84,1.82.56.29.77.35.33.15,1.55,1c.41.52,0,.73-.34,1C326.05,68.65,324.49,70,322.92,71.24Z"/><path class="cls-1" d="M330.25,59.85a.92.92,0,0,1-.12-.38.92.92,0,0,0,.12.38c-1,.41-1.92.06-2.88.06l-1.8-.49-1.56-1a.81.81,0,0,0,.19-.18l.69-.16c1.11-.28,2.35-.23,3.21-1.2.42.35.71.17.93-.25-.32,0-.69-.12-.92.24-1.16-.48-2.34.05-3.5-.1l-.19.27-.13-.08-.15,0a.52.52,0,0,0,.11-.32l.35.11c.21-.58.89-.65,1.23-1.09A1.84,1.84,0,0,0,327,55l.75-.16,1.11-.68,4.35-1.08a8.43,8.43,0,0,0-4.34-.24l-2.2.31a8.41,8.41,0,0,0-3.87,1l-.21-.29c.52-.61,1-1.22,1.55-1.84l2.33-1.86,1.43-.74L329,49l3.31-.53h1.18l1.51.18,3.57.94c1.27.57,2.51,1.23,3.82,1.67s.55.85.19,1.35c-.11,0-.16,0-.16.15l-.6.63a3.35,3.35,0,0,0-1.15,1.27,26.23,26.23,0,0,1-4.12,3.46l-1.77.89-1.73.6-1.73.29Zm0-3.49.33,0Z"/><path class="cls-1" d="M329.68,30.1c.06.27.11.55.16.82a30,30,0,0,1,0,5.19l-.1.35-.95,2.43-.15.34-.94,1.22c-.37,1.13-1.49,1.48-2.27,2.19l-.52-.08-.41.21a.4.4,0,0,0,.14-.27,1.09,1.09,0,0,0,.26,0c.27-1.15,1.8-1.87,1.14-3.34l0,0L325.7,39l.32.27c-.27.38-.41.89-.94,1-.44.63-1.28.89-1.57,1.66-.64-.49-.31-1-.1-1.57l.09-.39.23-.63a3.84,3.84,0,0,1,.35-2.7c0-.44.44-.87-.09-1.5l-1.56,3.19-2.06-1.52L320.3,36l.08-.36c.86-4.93,5.2-6.81,8.45-9.83A13.92,13.92,0,0,0,329.68,30.1Zm-4.8,8a6.09,6.09,0,0,0,.53.61A6.09,6.09,0,0,1,324.88,38.08Z"/><path class="cls-1" d="M298.11,50.43l-.34-.47-.06-.11-.12,0a4.78,4.78,0,0,1,.38-2.58c1-.39,1.38-2.19,2.95-1.3a.39.39,0,0,0,.55-.08,6.46,6.46,0,0,1,3.62,2.57c.21.49.43,1,.64,1.48l.21.82c.06.31.11.62.17.93-.09,1.14-.19,2.27-.28,3.41l-.24.71-.86,2-.16.33c-.48.77-.95,1.54-1.42,2.31l-.49.54-.91,1.05a6,6,0,0,0-1.85,1.79l0,0,0,0c1,.53,1.55-.34,2.28-.66l2.88-1.25,6.62-3.87c4-2.94,7.42-6.53,11-9.92L324.07,47l2.4-1.82.8-.59.58-.4,1.51-.76.74.29-4.39,3.87c-.32,0-.47.25-.59.51l-.61.54a5.47,5.47,0,0,0-1.84,1.77,38.54,38.54,0,0,0-4.66,4.9l-.59.63a.31.31,0,0,0-.21.27l-.8.77a4.92,4.92,0,0,0-1.65,1.46l-.49.26-.48.3h-.31l.18.26-.16.29-.82.11a64.16,64.16,0,0,1-12.83,7.58A26.1,26.1,0,0,1,285.66,70c0-.08-.05-.16-.08-.24,1.82-.43,3.22-1.77,5-2.36l.65-.5.87-.46a.22.22,0,0,0,.25-.17l.46-.27,1-.56a1.81,1.81,0,0,0,1.1-.68,9.23,9.23,0,0,0,2.78-2l.47-.37.74-.69a2.15,2.15,0,0,0,1.06-1,6.38,6.38,0,0,0,1.92-2.39c.36-.08.4-.38.46-.67l.27-.7.14-.33.67-1.74.13-.34.13-.35a2.63,2.63,0,0,0,.11-2.06.33.33,0,0,0,0-.29l-.11-.53a2.22,2.22,0,0,0-.55-1.37.44.44,0,0,0-.37-.45l-.6-.3c0-.65-.59-.58-1-.75-1-.08-1.94,0-2.14,1.33C298.93,50.24,298.7,50.64,298.11,50.43Zm1.13,13.95c-.28-.14-.43.11-.62.24.26.07.52.13.67-.18.39,0,.75,0,.57-.57h0C299.51,63.88,299.23,64,299.24,64.38Z"/><path class="cls-1" d="M313.21,50.76c.17-.61.34-1.19.51-1.78l.15,0,.14.07a4.15,4.15,0,0,0,1.44-1.23A4.15,4.15,0,0,1,314,49.07c.35-1.17,1.3-2.13,1.18-3.51l-1.08,1.15-1.27,1.85-1,1.09c.23-1.19-.1-2.47.62-3.58a4.37,4.37,0,0,1,.12-2.43c.24-.52,0-.77-.44-1l-.12.07-.06-.12-.69,2.17c.16,1.33-.5,2.46-.93,3.64.26.21,0,.25-.15.34l.12-.34-.91-.7-.86-1.47c-.07-.32-.13-.64-.19-1,.08-.67-.36-1.33-.05-2l-.17-.49a.82.82,0,0,0,0-.83c.09-.35.17-.71.25-1.06.3-.82.61-1.63.91-2.44l.65-1.34,2.21-2.73L314,32.78l.33-.24c.44-.18.8-.81,1.26.12,2.14,4.37,3.5,8.81,1.81,13.68C316.53,49.09,315,50.7,313.21,50.76Zm2.42-3.13.36-.41Z"/><path class="cls-1" d="M321.26,40.92c-.37-1.35-1.42-2.55-.89-4.1l2.06,1.52A4.85,4.85,0,0,1,321.26,40.92Z"/></svg>